<?xml version="1.0" encoding="utf-8"?>
<!-- Generator: Adobe Illustrator 21.0.2, SVG Export Plug-In . SVG Version: 6.00 Build 0)  -->
<svg version="1.1" id="Layer_1" xmlns="http://www.w3.org/2000/svg" xmlns:xlink="http://www.w3.org/1999/xlink" x="0px" y="0px"
	 width="331.9035645px" height="282.3424988px" viewBox="0 0 331.9035645 282.3424988"
	 style="enable-background:new 0 0 331.9035645 282.3424988;" xml:space="preserve">
<style type="text/css">
	.st0{opacity:0.07;fill:url(#SVGID_1_);}
	.st1{opacity:0.85;}
	.st2{fill:#ABB3E8;}
	.st3{fill:#9AA3DB;}
	.st4{fill:#A2A6E0;}
	.st5{fill:#ABB1E8;}
	.st6{fill:#B2D3FE;}
	.st7{fill:#AFC3F5;}
	.st8{fill:none;stroke:#000000;stroke-width:0.8482571;}
	.st9{fill:none;stroke:#000000;stroke-width:2.0012817;}
	.st10{opacity:0.3;}
	.st11{fill:none;stroke:#221F20;stroke-width:0.6490327;stroke-dasharray:3.8941829;}
</style>
<g>
	<g>
		<path d="M7.2290039,265.6354675h6.3984375v9.3208008c0,4.699707-2.3259277,7.3862305-6.8137207,7.3862305
			S0,279.6559753,0,274.9562683V259.67453c0-4.6996918,2.3259277-7.3862152,6.8137207-7.3862152
			s6.8137207,2.6865234,6.8137207,7.3862152v2.8574219H9.3071289v-3.1513672c0-2.0986328-0.9143066-2.8950195-2.3686523-2.8950195
			s-2.3686523,0.7963867-2.3686523,2.8950195v15.8696289c0,2.0986328,0.9143066,2.8540039,2.3686523,2.8540039
			s2.3686523-0.7553711,2.3686523-2.8540039v-5.4174805h-2.078125V265.6354675z"/>
		<path d="M21.1469727,265.0065613h6.2736816v4.1972656h-6.2736816v8.6064453h7.8937988v4.1972656h-12.463623v-29.3842621h12.463623
			v4.1972504h-7.8937988V265.0065613z"/>
		<path d="M31.4914551,259.67453c0-4.6996918,2.4506836-7.3862152,6.9384766-7.3862152s6.9384766,2.6865234,6.9384766,7.3862152
			v15.2817383c0,4.699707-2.4506836,7.3862305-6.9384766,7.3862305s-6.9384766-2.6865234-6.9384766-7.3862305V259.67453z
			 M36.0612793,275.2502136c0,2.0986328,0.9143066,2.8950195,2.3686523,2.8950195s2.3686523-0.7963867,2.3686523-2.8950195
			v-15.8696289c0-2.0986328-0.9143066-2.8950195-2.3686523-2.8950195s-2.3686523,0.7963867-2.3686523,2.8950195V275.2502136z"/>
		<path d="M57.9960938,273.4865417l3.1171875-20.863266h6.3574219v29.3842621h-4.3220215v-21.0717773l-3.1582031,21.0717773
			H55.670166l-3.4077148-20.777832v20.777832h-3.9887695v-29.3842621h6.3574219L57.9960938,273.4865417z"/>
		<path d="M75.362793,265.0065613h6.2736816v4.1972656H75.362793v8.6064453h7.8937988v4.1972656h-12.463623v-29.3842621h12.463623
			v4.1972504H75.362793V265.0065613z"/>
		<path d="M84.7519531,252.6232758H98.878418v4.1972504h-4.7783203v25.1870117h-4.5715332v-25.1870117h-4.7766113V252.6232758z"/>
		<path d="M110.4260254,282.0075378c-0.2478027-0.7553711-0.4152832-1.2167969-0.4152832-3.609375v-4.6176758
			c0-2.7275391-0.9143066-3.7358398-2.9907227-3.7358398h-1.5791016v11.9628906h-4.5698242v-29.3842621h6.895752
			c4.7373047,0,6.7727051,2.2250977,6.7727051,6.757309v2.3105469c0,3.0214844-0.9553223,4.9936523-2.9907227,5.9609375
			c2.2849121,0.9638672,3.0334473,3.1889648,3.0334473,6.2548828v4.5322266c0,1.4287109,0.0410156,2.4780273,0.4973145,3.5683594
			H110.4260254z M105.440918,256.8205261v9.0268555h1.7858887c1.7038574,0,2.7429199-0.7553711,2.7429199-3.1069336v-2.8950195
			c0-2.1020508-0.7058105-3.0249023-2.3276367-3.0249023H105.440918z"/>
		<path d="M121.4353027,272.2697449l-5.7763672-19.6464691h4.7783203l3.4897461,13.3915863l3.4914551-13.3915863h4.3613281
			l-5.7746582,19.6464691v9.737793h-4.5698242V272.2697449z"/>
		<path d="M132.6513672,265.2184753h8.309082v4.1972656h-8.309082V265.2184753z"/>
		<path d="M157.6213379,259.8864441v3.8178711c0,4.703125-2.2438965,7.2631836-6.8137207,7.2631836h-2.1601562v11.0400391
			h-4.5698242v-29.3842621h6.7299805C155.3774414,252.6232758,157.6213379,255.1833344,157.6213379,259.8864441z
			 M148.6474609,256.8205261v9.949707h2.1601562c1.4543457,0,2.2438965-0.6733398,2.2438965-2.7719727v-4.4057617
			c0-2.0986328-0.7895508-2.7719727-2.2438965-2.7719727H148.6474609z"/>
		<path d="M169.2954102,282.0075378c-0.2495117-0.7553711-0.4152832-1.2167969-0.4152832-3.609375v-4.6176758
			c0-2.7275391-0.9143066-3.7358398-2.9907227-3.7358398h-1.5791016v11.9628906h-4.5715332v-29.3842621h6.8974609
			c4.7373047,0,6.7727051,2.2250977,6.7727051,6.757309v2.3105469c0,3.0214844-0.9553223,4.9936523-2.9907227,5.9609375
			c2.2849121,0.9638672,3.0334473,3.1889648,3.0334473,6.2548828v4.5322266c0,1.4287109,0.0410156,2.4780273,0.4973145,3.5683594
			H169.2954102z M164.3103027,256.8205261v9.0268555h1.7858887c1.7038574,0,2.7429199-0.7553711,2.7429199-3.1069336v-2.8950195
			c0-2.1020508-0.7058105-3.0249023-2.3276367-3.0249023H164.3103027z"/>
		<path d="M176.0664062,259.67453c0-4.6996918,2.4506836-7.3862152,6.9384766-7.3862152s6.9384766,2.6865234,6.9384766,7.3862152
			v15.2817383c0,4.699707-2.4506836,7.3862305-6.9384766,7.3862305s-6.9384766-2.6865234-6.9384766-7.3862305V259.67453z
			 M180.6362305,275.2502136c0,2.0986328,0.9143066,2.8950195,2.3686523,2.8950195s2.3686523-0.7963867,2.3686523-2.8950195
			v-15.8696289c0-2.0986328-0.9143066-2.8950195-2.3686523-2.8950195s-2.3686523,0.7963867-2.3686523,2.8950195V275.2502136z"/>
		<path d="M206.1462402,271.052948v3.9033203c0,4.699707-2.3259277,7.3862305-6.8137207,7.3862305
			s-6.8137207-2.6865234-6.8137207-7.3862305V259.67453c0-4.6996918,2.3259277-7.3862152,6.8137207-7.3862152
			s6.8137207,2.6865234,6.8137207,7.3862152v2.8574219h-4.3203125v-3.1513672c0-2.0986328-0.9143066-2.8950195-2.3686523-2.8950195
			s-2.3686523,0.7963867-2.3686523,2.8950195v15.8696289c0,2.0986328,0.9143066,2.8540039,2.3686523,2.8540039
			s2.3686523-0.7553711,2.3686523-2.8540039v-4.1972656H206.1462402z"/>
		<path d="M213.498291,265.0065613h6.2736816v4.1972656h-6.2736816v8.6064453h7.8937988v4.1972656h-12.465332v-29.3842621h12.465332
			v4.1972504h-7.8937988V265.0065613z"/>
		<path d="M230.3642578,252.2883148c4.4484863,0,6.7351074,2.6865234,6.7351074,7.3862152v0.9262695h-4.3237305v-1.2202148
			c0-2.0986328-0.8322754-2.8950195-2.2849121-2.8950195c-1.4543457,0-2.2866211,0.7963867-2.2866211,2.8950195
			c0,6.0463867,8.9362793,7.1777344,8.9362793,15.5756836c0,4.699707-2.3276367,7.3862305-6.8171387,7.3862305
			c-4.486084,0-6.8137207-2.6865234-6.8137207-7.3862305v-1.8046875h4.3220215v2.0986328
			c0,2.0986328,0.9143066,2.8540039,2.3686523,2.8540039c1.4526367,0,2.3703613-0.7553711,2.3703613-2.8540039
			c0-6.0463867-8.9362793-7.1777344-8.9362793-15.5756836C223.6342773,254.9748383,225.9191895,252.2883148,230.3642578,252.2883148
			z"/>
		<path d="M245.9040527,252.2883148c4.4467773,0,6.7333984,2.6865234,6.7333984,7.3862152v0.9262695h-4.3237305v-1.2202148
			c0-2.0986328-0.8305664-2.8950195-2.2832031-2.8950195c-1.4560547,0-2.2866211,0.7963867-2.2866211,2.8950195
			c0,6.0463867,8.9345703,7.1777344,8.9345703,15.5756836c0,4.699707-2.3276367,7.3862305-6.8154297,7.3862305
			s-6.8120117-2.6865234-6.8120117-7.3862305v-1.8046875h4.3203125v2.0986328c0,2.0986328,0.9125977,2.8540039,2.3686523,2.8540039
			c1.4526367,0,2.3686523-0.7553711,2.3686523-2.8540039c0-6.0463867-8.9345703-7.1777344-8.9345703-15.5756836
			C239.1740723,254.9748383,241.4606934,252.2883148,245.9040527,252.2883148z"/>
		<path d="M255.2932129,252.6232758h4.5698242v29.3842621h-4.5698242V252.6232758z"/>
		<path d="M267.2595215,260.7238464v21.2836914h-4.1152344v-29.3842621h5.7353516l4.6928711,17.5888519v-17.5888519h4.0742188
			v29.3842621h-4.6962891L267.2595215,260.7238464z"/>
		<path d="M287.7810059,265.6354675h6.3984375v9.3208008c0,4.699707-2.3276367,7.3862305-6.8154297,7.3862305
			c-4.484375,0-6.8120117-2.6865234-6.8120117-7.3862305V259.67453c0-4.6996918,2.3276367-7.3862152,6.8120117-7.3862152
			c4.487793,0,6.8154297,2.6865234,6.8154297,7.3862152v2.8574219h-4.3203125v-3.1513672
			c0-2.0986328-0.9160156-2.8950195-2.3686523-2.8950195c-1.4560547,0-2.3686523,0.7963867-2.3686523,2.8950195v15.8696289
			c0,2.0986328,0.9125977,2.8540039,2.3686523,2.8540039c1.4526367,0,2.3686523-0.7553711,2.3686523-2.8540039v-5.4174805h-2.078125
			V265.6354675z"/>
		<path d="M296.9172363,265.2184753h8.3125v4.1972656h-8.3125V265.2184753z"/>
		<path d="M307.0993652,277.8102722c0.4956055,0.0410156,1.0800781,0.0410156,1.5756836,0.0410156
			c1.4560547,0,2.6181641-0.546875,2.6181641-2.8129883v-22.4150238h4.5732422v22.0800629
			c0,5.8754883-3.1171875,7.3896484-6.565918,7.3896484c-0.8305664,0-1.4560547,0-2.2011719-0.0854492V277.8102722z"/>
		<path d="M325.1291504,252.2883148c4.4467773,0,6.7333984,2.6865234,6.7333984,7.3862152v0.9262695h-4.3237305v-1.2202148
			c0-2.0986328-0.8305664-2.8950195-2.2832031-2.8950195c-1.4560547,0-2.2866211,0.7963867-2.2866211,2.8950195
			c0,6.0463867,8.9345703,7.1777344,8.9345703,15.5756836c0,4.699707-2.3276367,7.3862305-6.8154297,7.3862305
			s-6.8120117-2.6865234-6.8120117-7.3862305v-1.8046875h4.3203125v2.0986328c0,2.0986328,0.9125977,2.8540039,2.3686523,2.8540039
			c1.4526367,0,2.3686523-0.7553711,2.3686523-2.8540039c0-6.0463867-8.9345703-7.1777344-8.9345703-15.5756836
			C318.3991699,254.9748383,320.685791,252.2883148,325.1291504,252.2883148z"/>
	</g>
	<g>
		<g>
			
				<linearGradient id="SVGID_1_" gradientUnits="userSpaceOnUse" x1="132.3885498" y1="201.4786682" x2="253.4629974" y2="134.8519287">
				<stop  offset="0" style="stop-color:#FFFFFF"/>
				<stop  offset="1" style="stop-color:#000000"/>
			</linearGradient>
			<polygon class="st0" points="188.2238617,120.4005585 125.9667358,131.9668121 85.9231949,146.5937958 67.7490768,185.3782959 
				102.0748444,210.2155151 163.9920959,237.0882263 241.3931732,219.739975 283.1198425,198.9864502 282.787384,157.1401367 
				243.412323,137.747818 			"/>
			<g class="st1">
				<polygon class="st2" points="142.0476227,1.1325501 170.7314148,25.1704426 107.3229218,91.5634689 48.4477539,97.2829285 
					73.7344589,43.1028404 				"/>
				<polygon class="st3" points="107.3229218,91.5634689 48.4477539,97.2829285 56.371521,173.5937347 116.0069656,223.1981506 
					153.3685913,177.4071045 				"/>
				<polygon class="st4" points="153.3685913,177.4071045 116.0069656,223.1981506 173.7510529,230.8270569 245.082901,196.8682404 
					242.063797,160.6206512 				"/>
				<polygon class="st5" points="258.2962036,64.0885849 251.121109,68.6683807 242.063797,160.6206512 245.082901,196.8682404 
					254.5188599,137.3482208 				"/>
				<polygon class="st6" points="251.121109,68.6683807 258.2962036,64.0885849 196.01651,25.9337254 142.0476227,1.1325501 
					170.7314148,25.1704426 				"/>
				<polygon class="st7" points="170.7314148,25.1704426 107.3229218,91.5634689 153.3685913,177.4071045 242.063797,160.6206512 
					251.121109,68.6683807 				"/>
			</g>
			<g>
				<line class="st8" x1="170.7314148" y1="25.1704426" x2="142.0476227" y2="1.1325501"/>
				<line class="st8" x1="170.7314148" y1="25.1704426" x2="251.121109" y2="68.6683807"/>
				<line class="st8" x1="251.121109" y1="68.6683807" x2="258.2962036" y2="64.0885849"/>
				<line class="st8" x1="251.121109" y1="68.6683807" x2="242.063797" y2="160.6206512"/>
				<line class="st8" x1="242.063797" y1="160.6206512" x2="245.082901" y2="196.8682404"/>
				<line class="st8" x1="242.063797" y1="160.6206512" x2="153.3685913" y2="177.4071045"/>
				<line class="st8" x1="153.3685913" y1="177.4071045" x2="116.0069656" y2="223.1981506"/>
				<line class="st8" x1="153.3685913" y1="177.4071045" x2="107.3229218" y2="91.5634689"/>
				<line class="st8" x1="107.3229218" y1="91.5634689" x2="48.4477539" y2="97.2829285"/>
				<line class="st8" x1="107.3229218" y1="91.5634689" x2="170.7314148" y2="25.1704426"/>
			</g>
			<polygon class="st9" points="142.0476227,1.1325501 73.7344589,43.1028404 48.4477539,97.2829285 56.371521,173.5937347 
				116.0069656,223.1981506 173.7510529,230.8270569 245.082901,196.8682404 254.5188599,137.3482208 258.2962036,64.0885849 
				196.01651,25.9337254 			"/>
			<g class="st10">
				<polygon class="st11" points="161.673996,75.1532898 92.9801636,85.8375015 83.1687927,158.3327637 148.4612427,191.1455231 
					195.2614899,138.8747864 				"/>
				<line class="st11" x1="161.673996" y1="75.1532898" x2="196.01651" y2="25.9337254"/>
				<line class="st11" x1="195.2614899" y1="138.8747864" x2="254.5188599" y2="137.3482208"/>
				<line class="st11" x1="148.4612427" y1="191.1455231" x2="173.7510529" y2="230.8270569"/>
				<line class="st11" x1="83.1687927" y1="158.3327637" x2="56.371521" y2="173.5937347"/>
				<line class="st11" x1="92.9801636" y1="85.8375015" x2="73.7344589" y2="43.1028404"/>
			</g>
		</g>
		<g>
			<path d="M136.614151,106.9682465c0-1.6987305,0.5930176-3.0915527,1.7807617-4.1801758
				c1.1860352-1.088623,2.7258301-1.6320801,4.6193848-1.6320801c1.9379883,0,3.4931641,0.5332031,4.6689453,1.5996094
				s1.7636719,2.4711914,1.7636719,4.2126465s-0.5930176,3.1445312-1.7790527,4.2109375
				c-1.1877441,1.0681152-2.737793,1.5996094-4.6535645,1.5996094s-3.4606934-0.5314941-4.6364746-1.5996094
				C137.2020416,110.1127777,136.614151,108.7097015,136.614151,106.9682465z"/>
			<path d="M186.1678619,110.3964691c0,2.7634277-0.1623535,4.8654785-0.4870605,6.3010254
				c-0.324707,1.4372559-0.8544922,2.6352539-1.5893555,3.5922852c-1.2321777,1.6098633-2.947998,2.8334961-5.144043,3.6743164
				c-2.1960449,0.8374023-4.7749023,1.2543945-7.7348633,1.2543945c-2.4592285,0-4.267334-0.2495117-5.4208984-0.7485352
				c-1.1535645-0.5024414-1.7294922-1.2749023-1.7294922-2.3208008c0-0.6733398,0.2768555-1.2680664,0.8322754-1.7773438
				c0.5554199-0.5126953,1.2133789-0.769043,1.9755859-0.769043c0.5878906,0,1.5021973,0.0820312,2.7429199,0.2460938
				s2.1755371,0.2460938,2.8078613,0.2460938c3.1787109,0,5.4414062-0.7382812,6.7915039-2.2080078
				s2.0251465-4.0144043,2.0251465-7.6306152V86.7560883h-12.7678223c-2.1105957,0-3.4333496-0.1674805-3.9665527-0.5024414
				s-0.7998047-0.9450684-0.7998047-1.8320312c0-0.7570801,0.217041-1.3244629,0.652832-1.7021484
				c0.434082-0.3776855,1.088623-0.5673828,1.9584961-0.5673828h17.9716797c0.5827637,0,1.0424805,0.1196289,1.3774414,0.3588867
				s0.5041504,0.5673828,0.5041504,0.979248V110.3964691z M177.3512115,72.7475433
				c0-2.3276367,0.217041-3.8024902,0.652832-4.4228516s1.3603516-0.9313965,2.7753906-0.9313965
				c1.3278809,0,2.2045898,0.2512207,2.628418,0.7519531c0.4255371,0.5007324,0.6374512,1.7192383,0.6374512,3.6555176
				c0,1.9157715-0.1965332,3.0864258-0.5878906,3.5102539c-0.3913574,0.4255371-1.2851562,0.6374512-2.6779785,0.6374512
				c-1.4150391,0-2.3395996-0.2119141-2.7753906-0.6374512C177.5682526,74.8871918,177.3512115,74.0326996,177.3512115,72.7475433z"
				/>
			<path d="M202.0374908,109.970932v-5.8122559c0-0.9570312,0.1794434-1.642334,0.5383301-2.0559082
				s0.9416504-0.6203613,1.746582-0.6203613c0.8920898,0,1.5996094,0.6101074,2.1225586,1.8286133
				c0.3486328,0.7399902,0.6647949,1.2954102,0.9467773,1.6645508c0.9143066,1.1757812,2.2644043,2.1174316,4.048584,2.8249512
				c1.7858887,0.7075195,3.7563477,1.0612793,5.911377,1.0612793c2.3071289,0,4.15625-0.4682617,5.5507812-1.4047852
				c1.3928223-0.9348145,2.0883789-2.1652832,2.0883789-3.6896973c0-1.5449219-0.5605469-2.6437988-1.6816406-3.2966309
				c-1.1210938-0.654541-3.0419922-0.980957-5.7626953-0.980957h-1.7961426c-4.4399414,0-7.8254395-0.7724609-10.1547852-2.3173828
				s-3.4931641-3.7888184-3.4931641-6.7265625c0-2.8728027,1.1381836-5.1047363,3.4128418-6.6940918
				c2.2746582-1.5876465,5.46875-2.3840332,9.5822754-2.3840332c1.6765137,0,3.385498,0.2341309,5.1269531,0.7023926
				s2.6557617,0.7023926,2.7429199,0.7023926c0.2392578,0,0.6955566-0.2119141,1.3706055-0.6374512
				c0.6750488-0.4238281,1.3398438-0.6357422,1.9926758-0.6357422c0.7382812,0,1.2885742,0.2717285,1.6474609,0.8168945
				c0.3588867,0.543457,0.5400391,1.3603516,0.5400391,2.4472656v3.8212891c0,1.1535645-0.1743164,1.9858398-0.5229492,2.4985352
				c-0.3486328,0.5109863-0.9057617,0.767334-1.6645508,0.767334c-0.652832,0-1.4594727-0.5554199-2.4165039-1.6662598
				c-0.6750488-0.762207-1.2304688-1.3381348-1.6645508-1.7312012c-1.1552734-1.0646973-2.3840332-1.8320312-3.6896973-2.300293
				c-1.307373-0.4682617-2.842041-0.7023926-4.6040039-0.7023926c-2.0473633,0-3.6965332,0.4511719-4.9475098,1.3552246
				c-1.2526855,0.9023438-1.8781738,2.0507812-1.8781738,3.4436035c0,1.3723145,0.6425781,2.3515625,1.9277344,2.9394531
				c1.2834473,0.5878906,4.048584,0.9245605,8.2937012,1.0117188c4.5270996,0.109375,7.8356934,0.8989258,9.9257812,2.3669434
				c2.0883789,1.4697266,3.1342773,3.7392578,3.1342773,6.8085938c0,2.9377441-1.1552734,5.2893066-3.4589844,7.0529785
				c-2.3088379,1.7636719-5.4226074,2.6437988-9.3413086,2.6437988c-1.2407227,0-2.623291-0.112793-4.1459961-0.3417969
				c-1.5244141-0.2290039-3.4401855-0.6152344-5.7473145-1.1586914c-0.762207,0.5007324-1.4150391,0.875-1.9584961,1.1262207
				c-0.545166,0.2495117-1.0014648,0.3742676-1.3706055,0.3742676c-0.762207,0-1.3449707-0.2666016-1.748291-0.7998047
				S202.0374908,110.9723969,202.0374908,109.970932z"/>
		</g>
	</g>
</g>
</svg>
