<?xml version="1.0" encoding="utf-8"?>
<!-- Generator: Adobe Illustrator 21.0.2, SVG Export Plug-In . SVG Version: 6.00 Build 0)  -->
<svg version="1.1" id="Layer_1" xmlns="http://www.w3.org/2000/svg" xmlns:xlink="http://www.w3.org/1999/xlink" x="0px" y="0px"
	 width="238.8239899px" height="217.7751312px" viewBox="0 0 238.8239899 217.7751312"
	 style="enable-background:new 0 0 238.8239899 217.7751312;" xml:space="preserve">
<style type="text/css">
	.st0{opacity:0.2;fill:#1B1F8A;enable-background:new    ;}
	.st1{opacity:0.15;fill:#1B1F8A;enable-background:new    ;}
	.st2{opacity:0.1;}
	.st3{fill:url(#SVGID_1_);}
	.st4{fill:none;stroke:#000000;stroke-width:0.380448;stroke-dasharray:1.141344;}
	.st5{opacity:0.82;}
	.st6{fill:none;stroke:#000000;stroke-width:0.765864;}
	.st7{fill:none;stroke:#000000;stroke-width:0.191448;}
	.st8{fill:none;stroke:#000000;stroke-width:0.191448;stroke-linecap:round;}
</style>
<g>
	<g>
		<g>
			<g>
				<g>
					<path class="st0" d="M74.0879974,44.7591095c0.1439972,0-4.0319977,4.7519989-9.288002,12.4560013
						c-5.2560005,7.776001-9.791996,17.5679932-9.791996,17.5679932
						C57.5279999,61.5351105,62.7840004,49.9431114,74.0879974,44.7591095z"/>
					<path class="st1" d="M86.8320007,56.2071114c4.2479935-9.9360008,13.4639969-16.4880028,23.8319931-21.8160019
						c10.1520004-5.2559967,22.8960037-8.8559971,36.2879868-8.711998
						c20.0879974,0.2159996,37.4400024,9.1439972,47.3760223,21.1679993
						c2.8799896,3.5279999,7.8479919,10.5839996,8.1359863,17.4239998
						c0.3600006,6.8399963-2.0159912,11.3759995-2.7359924,13.5360031
						c-3.5999908-7.5600052-9.0720062-16.3440018-16.9920044-20.8800011
						c-8.2079926-4.7519989-22.4639893-9.3600006-32.3999939-4.0320015
						c5.3999939,2.3040009,10.9440002,5.4000015,15.6239929,9.576004
						c4.3200073,3.8160019,8.9279938,8.8560028,10.0800018,15.1200027
						C177.1199951,83.2071152,174.3119965,88.8951111,171,92.5671082c-0.0720062,0.3600006-0.5039978,0.3600006-0.1439972,0
						c1.4399872-1.583992,3.2399902-5.3999939,2.6639862-8.423996c-1.223999-6.9119949-9.0720062-11.8799973-14.2559967-15.1200027
						c-11.7360077-7.3439941-27.7920074-12.3119965-44.8560028-13.7519951
						C104.9039993,54.4071121,94.6800079,55.0551109,86.8320007,56.2071114z"/>
					<path class="st1" d="M159.9120026,134.9751129c-13.5360107,5.2559967-27.7200012,9.9359894-38.8080139,17.6399994
						c13.5360107,9.071991,40.1040039,13.3919983,58.7520142,6.0479889
						c0.2879944-0.0720062,0.3599854,0.1439972,0.1439972,0.1439972
						c-15.0480042,6.6239929-38.3040009,7.776001-55.9440079,3.3840027
						c-17.2799988-4.3200073-30.6719971-13.3200073-41.4719925-23.5440063
						c-17.6399994-2.8799896-33.4080048-8.8560028-45.2160034-18.1439896c-5.4719982-4.3199997-10.7279968-10.5120087-13.6079979-18
						c-2.8079987-7.3440018-2.7359982-19.0800018,1.6560001-25.8480072c0-0.4319992,0.2159996-0.2879944,0.144001,0
						C18.7919998,91.4151001,27.5039997,104.8070984,36,111.9351044
						c9.3600006,7.8479996,20.7359962,13.6800003,33.4079971,17.6399994
						c22.4640045,7.0559998,51.840004,8.352005,78.9120102,5.4000092
						C152.2079926,134.5431061,156.1679993,133.6071167,159.9120026,134.9751129z"/>
				</g>
			</g>
			<g>
				<g>
					<g class="st2">
						
							<linearGradient id="SVGID_1_" gradientUnits="userSpaceOnUse" x1="162.2579346" y1="155.7904358" x2="17.7668209" y2="103.4565887" gradientTransform="matrix(1 0 0 -1 0 239.4405365)">
							<stop  offset="0" style="stop-color:#FFFFFF"/>
							<stop  offset="1" style="stop-color:#000000"/>
						</linearGradient>
						<path class="st3" d="M59.1119995,144.5511017c-14.6880035-0.5039978-27.1440029-3.2399902-37.0800018-8.5679932
							c-9.3599997-5.6159973-18.5760002-12.5279922-18.7919998-26.7119904
							c-0.2160001-14.2560043,8.6399994-21.9599991,16.1280003-29.3759995
							c8.2800026-6.7680054,18.0720005-12.1680069,29.5200024-15.9120064
							C59.1119995,54.5511131,72,48.2151108,90.5040054,47.3511124c13.6079941-0.6479988,25.2719879,2.2320023,35.2080002,6.0480042
							c9.8639984,3.7439995,18.647995,9.1439972,25.7039948,15.4079971
							c6.8400116,6.1200027,13.2480011,14.4000015,17.1360016,23.9759979
							c4.1760101,10.3680038,4.6800079,23.6160049,0.647995,34.7040024
							c-3.4559937,9.5759964-10.0799866,17.4959946-17.9279938,23.3279953
							c-7.8479919,5.8320007-17.9279938,10.2960052-29.3759995,11.7359924
							C94.8240051,166.0791168,75.2399979,155.6391144,59.1119995,144.5511017z M112.6080017,106.2471085
							c4.1039963-3.7439957,8.2799988-7.9199982,10.5839996-12.7439957c1.583992-3.3119965,2.159996-8.1360016,0.647995-11.3759995
							c-2.5200043-5.6160049-10.0079956-9.288002-16.416008-11.2320023
							c-14.7599945-4.3919983-34.9919968-3.2399979-48.5279999,1.1520004
							c-11.3759995,12.2399979-5.3999977,37.4400024,1.512001,49.5360031
							c1.5119972,2.6639938,2.8080025,5.5439987,5.0400009,7.0559998
							C83.8799973,125.7591171,100.9440002,116.9031143,112.6080017,106.2471085z"/>
					</g>
					<g>
						<g>
							<path class="st4" d="M87.4799957,139.0791168c-0.1439972-1.5839996-0.0719986-3.2400055-0.2879944-4.8960114v-4.8959961
								c-0.3600006-4.1760025,0.647995-10.4399948-2.9520035-12.0960007"/>
							<path class="st4" d="M75.7440033,136.8471069c2.8079987,0.5039978,7.1999969-2.3040009,9.576004-3.8879852
								l3.5279999-2.5200043c4.6799927-4.1760025,11.5919952-5.7600021,9.935997,2.5919952
								c-0.647995,3.3840027-5.2560043,13.6080017-9,11.2320099"/>
						</g>
						<path class="st4" d="M107.4240036,18.9831104c-4.3199997,1.4400005,0,17.1359997,0.2160034,18.6480007l-0.2160034,0.0719986
							c-4.0320053,2.2319984-3.0240021,10.9440002-0.4320068,16.2720032
							c0.2879944,0.5760002,0.7200012,1.0079994,1.0800018,0.935997"/>
						<path class="st4" d="M84.5999985,61.1031113C81,65.5671082,69.5519943,59.2311134,65.3040009,56.4231148l0,0l0,0
							c-2.8079987,4.3199997-7.9919968,10.5119972-12.8160019,8.279995
							c-3.5279999-1.6559982-6.696003-7.7039986-3.3839951-10.7999954"/>
						<path class="st4" d="M81.864006,93.7911072c0.1439972,1.4400024-0.5039978,2.9520035-1.7280045,4.3199997
							c-5.8320007,6.5520096-18.935997,2.9520035-27.1440048-2.7360001l0,0l0,0
							c-7.6319962,3.8880005-21.1679993,10.4400024-28.223999,4.8239975
							c-1.1519985-0.9360046-1.8719997-2.1600037-2.0160007-3.4560013"/>
						<path class="st4" d="M148.8240051,108.4791183c-0.4320068,0.3600006-0.7920074,1.1520004-0.9360046,2.159996
							c-1.1520081,7.5599976,2.8079987,18.647995,4.1040039,24.6239929l0.4319916,2.0879974
							c0,0-0.7919922,1.223999-1.3679962,2.447998c-2.3039856,4.9680023,0,19.8000031,3.8880005,23.7599945
							c0.4320068,0.4320068,0.7920074,0.576004,1.0079956,0.576004"/>
						<path class="st4" d="M163.7279968,16.2471104c0.7920074,0.144001,0.7920074,2.0160007,0.7200012,3.1679993
							c-0.3600006,4.9680004-3.8880005,13.6800022-6.0479889,17.9279995l-1.5120087,3.6720009l-0.2160034,2.7360001
							c-0.1439972,5.1839981-2.3760071,17.711998-6.3359985,19.9439964"/>
						<path class="st4" d="M170.2799988,78.0231094c2.9520111,3.8160095,11.3760071-0.359993,15.4080048-3.5999985
							c2.1600037-1.7279968,4.8959808-4.6800003,6.4799957-6.4799957l1.5840149-2.0160065l2.519989,0.4319992
							c4.4640198,0.4319992,10.4400024,0.3600006,15.3359985-2.0879974
							c3.4559937-1.7280045,8.2799988-5.9760017,6.8399963-9.6480026"/>
						<path class="st4" d="M173.0159912,87.8151093c-0.7200012,1.223999-0.7200012,2.6640015-0.2879944,4.1040039
							c2.447998,8.2799988,15.1920013,12.095993,23.9759979,13.6800003h0.2159882l0.7920074,2.2320099
							c1.9440002,5.4720001,4.8959808,11.2320023,9.7200012,14.6159973
							c3.5999908,2.5200043,11.519989,5.1120071,13.8240051,0.8639984"/>
					</g>
					<g class="st5">
						<g>
							<path class="st0" d="M82.512001,138.2871094c-12.0960083-2.3760071-23.5440025-5.2559967-33.0480042-10.3679962
								c-9.288002-4.9679947-17.855999-11.6639938-22.8959999-20.4479904
								c-3.9599991-6.840004-5.5440006-17.1360016-3.1680012-24.9840012
								c2.2319984-7.4160004,6.9840012-13.6080017,11.8080006-18.4319992
								c10.2960014-10.223999,24.4080009-16.2719994,39.8159981-20.8800011
								c15.9839935-18.5759983,34.776001-29.2319984,60.4800034-30.4559975
								c17.2079926-0.7920008,31.1039886,3.3839989,43.4160004,8.855999
								c12.3119812,5.4720001,22.391983,12.8159981,30.8159943,21.5999985s15.6240082,20.1599998,18.5759888,33.984005
								c3.5279999,16.487999,0.0720062,31.8960037-5.6159821,43.776001
								c-10.5120087,21.7439957-33.9840088,38.8799973-62.352005,42.6240005
								c-25.5599976,3.3840027-48.2400055-3.3840027-63.1439972-13.8960114
								C92.0879974,146.1351013,87.4079971,142.3191223,82.512001,138.2871094z M134.7839966,113.3031158
								c12.6000061-3.6000061,24.6240082-9.1439972,32.3280182-16.9200058
								c2.519989-2.5919952,5.5439911-6.1199951,6.0479889-10.1519928
								c0.8639984-7.0560074-7.4160004-12.9600067-11.6640015-15.9840088
								c-5.1119995-3.5999985-10.8000031-6.1919937-16.5599976-8.2799988
								c-15.4079895-5.6159973-38.5199966-9.4319992-58.0319977-5.4719963
								c-8.6399994,16.3440056-6.9839935,48.5279961,3.7439957,61.2719994
								C106.7040024,118.5591125,121.7519989,117.0471115,134.7839966,113.3031158z"/>
						</g>
					</g>
					<g>
						<g>
							<path class="st6" d="M82.512001,138.2871094c-12.0960083-2.3760071-23.5440025-5.2559967-33.0480042-10.3679962
								c-9.288002-4.9679947-17.855999-11.6639938-22.8959999-20.4479904
								c-3.9599991-6.840004-5.5440006-17.1360016-3.1680012-24.9840012
								c2.2319984-7.4160004,6.9840012-13.6080017,11.8080006-18.4319992
								c10.2960014-10.223999,24.4080009-16.2719994,39.8159981-20.8800011
								c15.9839935-18.5759983,34.776001-29.2319984,60.4800034-30.4559975
								c17.2079926-0.7920008,31.1039886,3.3839989,43.4160004,8.855999
								c12.3119812,5.4720001,22.391983,12.8159981,30.8159943,21.5999985s15.6240082,20.1599998,18.5759888,33.984005
								c3.5279999,16.487999,0.0720062,31.8960037-5.6159821,43.776001
								c-10.5120087,21.7439957-33.9840088,38.8799973-62.352005,42.6240005
								c-25.5599976,3.3840027-48.2400055-3.3840027-63.1439972-13.8960114
								C92.0879974,146.1351013,87.4079971,142.3191223,82.512001,138.2871094z M134.7839966,113.3031158
								c12.6000061-3.6000061,24.6240082-9.1439972,32.3280182-16.9200058
								c2.519989-2.5919952,5.5439911-6.1199951,6.0479889-10.1519928
								c0.8639984-7.0560074-7.4160004-12.9600067-11.6640015-15.9840088
								c-5.1119995-3.5999985-10.8000031-6.1919937-16.5599976-8.2799988
								c-15.4079895-5.6159973-38.5199966-9.4319992-58.0319977-5.4719963
								c-8.6399994,16.3440056-6.9839935,48.5279961,3.7439957,61.2719994
								C106.7040024,118.5591125,121.7519989,117.0471115,134.7839966,113.3031158z"/>
						</g>
					</g>
					<g>
						<g>
							<g>
								<path class="st7" d="M82.5839996,69.4551086c0.1439972-0.8639908,0.288002-1.9439926,0.5039978-2.5919952
									c8.6399994-36.576004,35.064003-54.6480026,71.4960022-50.6880035
									c39.5280151,4.2479992,80.2799988,38.5919952,74.6640015,83.3040009
									c-3.8159943,30.7440033-30.5279999,56.2319946-62.423996,62.8560028"/>
								<path class="st7" d="M88.7040024,115.6071091C72.6480026,87.38311,65.3759995,39.359108,100.8000031,21.8631134"/>
								<path class="st7" d="M82.512001,138.2871094c33.6959991,24.9120026,83.7360001,20.8079987,112.1039963-4.5359955
									c11.8079987-10.5839996,20.3759918-24.6240005,21.3119965-40.1040039
									c2.8800049-49.1760025-60.0479889-79.1279984-107.9279861-56.0880013"/>
								<path class="st7" d="M200.7359924,93.7191086c5.3280029-32.4719963-34.9919891-51.1919975-62.4959869-54.0719986
									c-11.6640015-1.223999-30.5279999-0.144001-40.6800003,2.9519997"/>
								<path class="st7" d="M73.6559982,46.1991081"/>
								<path class="st7" d="M85.6080017,115.8231125"/>
								<path class="st7" d="M76.8240051,115.7511063c-12.0240021-3.0960007-24.2639999-8.5679932-33.0480042-17.2799988
									C32.6879997,87.38311,31.3199997,72.6231155,42.552002,60.4551125
									c5.6879959-6.1920013,12.239994-9.6480026,21.0959969-13.3919983"/>
								<path class="st7" d="M72.1440048,46.9911118c-19.4400024,8.4239998-34.4880028,34.4880066-20.5200043,53.2080002
									c2.7360039,3.6720047,5.3280029,6.6240005,7.7760048,8.8560028"/>
								<path class="st7" d="M47.3040009,126.5511093c21.1679993,11.6639938,46.4400024,12.8879929,69.6960068,8.711998
									c26.711998-4.7519989,64.8720016-22.2479935,67.9679947-47.447998
									c2.8800049-23.7599945-39.1679993-31.2479973-59.1120071-32.9759979
									c-12.3120041-1.079998-22.7520065-1.1519966-36.0719986,0.9360008"/>
								<path class="st7" d="M64.7999954,57.2871094C53.711998,74.2791061,57.8880005,97.031105,71.4960022,112.295105
									c1.0080032,1.1520081,1.9440002,2.1600037,2.6639938,3.0240021"/>
								<path class="st7" d="M167.6159973,75.2151108c2.8800049,2.8079987,6.4079895,6.6960068,5.6879883,11.3040009
									c-1.4399872,9.2160034-15.1199951,17.711998-23.3999939,21.8880005
									c-18.2160034,9.0720062-42.3360062,14.2560043-63.288002,14.1119995
									c-19.8000031-0.1439972-41.3999977-4.0319977-55.223999-16.1999969
									c-7.3439922-6.4080048-11.0159931-15.1920013-7.4159908-25.6320038"/>
								<path class="st6" d="M93.1679993,118.1991119c7.4160004,0.1440048,14.8320084-0.0719986,22.1760025-1.0079956"/>
							</g>
						</g>
						<g>
							<g>
								<g>
									<path class="st7" d="M130.9680023,57.5751114c1.0800018-14.6879997,1.0079956-29.5200005,2.447998-44.1359978"/>
									<path class="st7" d="M161.8560028,70.7511063l-0.0720062-0.0719986
										c-1.4400024-8.7839966,10.1519928-15.9839973,16.3439941-20.0879974
										c0.9360046-4.3200035,6.1200104-15.6240005,10.9440002-19.4400024
										c1.5119934-1.223999,3.4559937-2.2320004,4.6799927-1.223999"/>
									<path class="st7" d="M85.8240051,32.2311096c5.7599945-2.7359982,10.9439926,10.2240028,7.776001,13.8959999"/>
									<path class="st7" d="M95.1840057,55.4871101c2.3039932-2.9519997,0.935997-7.487999,0.8639908-11.0159988"/>
									<path class="st7" d="M63.0719986,47.27911c2.447998-1.0080032,5.4000015,0.6480026,7.6319962,1.5839996"/>
									<path class="st7" d="M28.1520004,72.2631149c7.4160004-7.4160004,18.432003-0.7920074,26.1359978,2.7359924
										c5.5439987-5.3279953,21.3120003-10.6559982,26.2800026-1.7999954
										C81,73.9911118,81.5040054,75.4311066,81.288002,76.7271118"/>
									<path class="st7" d="M172.7279968,82.9191132c-0.5039978-1.6560059,1.0800018-4.0320053,2.3040009-4.8960037
										c7.4160004-5.7600021,21.3119965,2.0879974,26.1360016,7.0559998
										C207,82.9191132,219.8880005,79.6071091,226.29599,83.0631104
										c1.8720093,1.0079956,3.4559937,2.8079987,3.1679993,4.7519989"/>
									<path class="st7" d="M166.0319977,97.2471085c7.4879913-3.5279999,13.8240051,9.2879944,14.5439911,17.4960022
										c0.2880096,3.3840027,0.0720062,6.6960068-0.3600006,9.9360046
										c4.4640198,5.9760056,16.128006,16.3440018,14.9759979,24.840004
										c-0.0720062,0.7920074-0.7200012,1.9440002-1.5840149,2.3040009"/>
									<path class="st7" d="M40.3199997,122.3751068c-9.288002-7.487999,9.5039978-20.8799973,18.2159958-13.8960037"/>
									<path class="st7" d="M118.5839996,160.1031189c-0.4319992-6.4080048-0.2159958-12.0960083,0.0720062-18.5039978
										c-0.2879944-0.2160034-0.647995-0.0720062-1.0079956-0.1439972
										c-2.2320023-7.2720184-0.4320068-17.3520126,0.647995-24.840004"/>
								</g>
							</g>
							<path class="st8" d="M150.4080048,63.7671089"/>
							<path class="st7" d="M149.6880035,63.8391113c0.1439972,0.1439972,0.4320068,0.1439972,0.7200012,0"/>
							<path class="st8" d="M73.0800018,130.4391174"/>
							<path class="st8" d="M152.423996,137.423111"/>
							<g>
								<path class="st7" d="M107.4240036,19.0551109c0.2160034-0.0720005,0.4320068,0,0.647995,0.2880001
									c2.3040009,2.7360001,4.1760025,17.8559971-0.5039978,18.2879963l0,0l0.2160034,1.4400024
									c0.5039978,4.1759987,2.0879974,11.6639977,0.5039978,15.5519981
									c-0.0720062,0.2159996-0.2160034,0.3600006-0.3600006,0.3600006"/>
								<path class="st7" d="M149.6880035,63.8391113c-0.5039978-0.4319992-0.5039978-1.9440002-0.5039978-2.5200005
									c0.2879944-4.6800003,3.8879852-13.2480011,6.0479889-17.5680008l1.3679962-2.6640015l0.3600006-3.7439995
									c0.647995-5.4000015,1.7279968-17.8560009,6.1920013-20.8080006c0.2879944-0.144001,0.5039978-0.2160015,0.647995-0.2160015
									"/>
								<path class="st7" d="M49.1760025,53.9031105c0.5760002-0.5040016,1.2960014-0.9360008,2.2319984-1.223999
									c4.7519989-1.4400024,9.288002,1.223999,13.9679985,3.7439995l0,0l0,0
									c2.9520035-5.1119995,6.1200027-7.4160004,9.5039978-7.7040024
									c4.4639969-0.3600006,11.5920029,6.4799995,10.4400024,10.9440002
									c-0.1439972,0.5039978-0.3600006,1.0079994-0.7200012,1.4399986"/>
								<path class="st7" d="M218.5200043,54.6231117c-2.2320099-5.8320045-12.3120117,0.2159996-16.70401,3.7439995
									c-2.447998,2.0160027-4.7519989,4.3919983-6.1199951,5.7600021l-1.8720093,1.7999954l-2.0159912-0.1439972
									c-7.4879913-0.5039978-15.552002-0.1439972-20.5200043,5.4000015
									c-1.7279968,1.8720016-2.5919952,4.7519989-0.9359894,6.9120026"/>
								<path class="st7" d="M22.7520008,96.7431107c-0.144001-1.0079956,0.0719986-2.0879974,0.5759983-3.0239944
									c2.0880013-3.8160019,6.6240005-4.6800003,10.9440002-5.0400009
									c6.4799995-0.5039978,13.8240013,2.7360001,18.6479988,6.6959991l0,0l0,0
									c6.696003-3.0239944,20.0880051-10.0079956,26.711998-4.8239975
									c1.2960052,1.0080032,2.0160065,2.1600037,2.0880051,3.3120041"/>
								<path class="st7" d="M221.2559967,123.4551086c0.2159882-0.3600006,0.3600006-0.7920074,0.4320068-1.223999
									c0.9359894-4.1039963-4.8959961-9.576004-12.2400055-12.3839951
									c-7.3440094-2.8079987-12.5999908-4.1040039-12.5999908-4.1040039s-1.1520081-3.3839951-1.5840149-4.4639969
									c-0.4320068-1.1520004-2.6640167-6.6959991-6.1920013-10.2959976
									c-3.9600067-4.0320053-9.7200012-7.2000046-14.1840057-4.8239975
									c-0.8639984,0.5039978-1.5119934,1.0799942-1.871994,1.7279968"/>
								<g>
									<path class="st7" d="M89.8560028,144.1911011c-0.4319992-0.2879944-0.8639984-0.7919922-1.2960052-1.4399872
										c-0.7200012-1.1520081-0.935997-2.3760071-1.0800018-3.6720123"/>
									<path class="st7" d="M84.2399979,117.1911087c-5.3280029-2.447998-10.5839996,8.2079926-11.159996,13.2479935l0,0
										c-0.1439972,1.5120087-0.0719986,4.1760101,1.0079956,5.4720001
										c0.4319992,0.5039978,1.0080032,0.8639984,1.6560059,0.9360046"/>
								</g>
								<g>
									<path class="st7" d="M152.423996,137.423111c1.5839996,5.5440063,5.256012,18.7200012,4.6800079,24.4080048
										c-0.0720062,1.0079956-0.3600006,2.2320099-1.0800018,2.2320099"/>
									<path class="st7" d="M148.8240051,108.4791183c0.4320068-0.3600006,1.0800018-0.1439972,1.7279968,0.7199936
										c4.5359955,5.7600021,6.1199951,21.6000061,1.8000031,28.2960052l0,0l0,0"/>
								</g>
							</g>
						</g>
					</g>
					<path class="st6" d="M86.8320007,56.567112c0,0,6.9839935-15.0480042,18.7919998-18.4319992
						c11.8079987-3.3840027,39.3119888-5.1119995,68.9760056,10.368
						c28.9440002,15.0480003,37.5120087,49.5360031,9.3600006,72.7200012
						c-31.1040039,25.7039948-77.7600021,21.3840027-101.0880051,17.0639954"/>
					<path class="st6" d="M75.0240021,43.2471123c0,0-4.5360031,5.6159973-9.6480026,13.1759987
						c-5.1839943,7.6320038-10.7999992,17.2080002-12.5279999,24.9840012
						c-3.0239983,13.8239975,5.0400009,26.4960022,5.0400009,26.4960022s6.0480003,4.5360031,14.5439987,6.9120026
						s18.1439972,3.0960007,18.1439972,3.0960007"/>
				</g>
			</g>
		</g>
		<g>
			<g>
				<path d="M5.9759998,187.4631195h5.3999996v7.7039948c0,3.8879852-1.9439993,6.1199951-5.6879992,6.1199951
					S0,199.0550995,0,195.1671143v-12.6720123c0-3.8879852,1.9440002-6.1199951,5.6880002-6.1199951
					s5.6879992,2.2320099,5.6879992,6.1199951v2.3760071H7.776v-2.6640015c0-1.7279968-0.7920003-2.3759918-2.0160003-2.3759918
					s-2.0160003,0.647995-2.0160003,2.3759918v13.1760101c0,1.7279968,0.7919998,2.3759918,2.0160003,2.3759918
					S7.776,197.1111145,7.776,195.3831177v-4.4640045H5.9759998V187.4631195z"/>
				<path d="M17.6399994,186.8871155h5.2560024v3.4559937h-5.2560005v7.128006h6.6240005v3.4559937H13.8239994v-24.4079895
					h10.4400005v3.4559937h-6.6240005C17.6399994,179.9751129,17.6399994,186.8871155,17.6399994,186.8871155z"/>
				<path d="M26.3520012,182.4951019c0-3.8879852,2.0880013-6.1199951,5.8320007-6.1199951s5.8320007,2.2320099,5.8320007,6.1199951
					v12.6720123c0,3.8879852-2.0880013,6.1199951-5.8320007,6.1199951s-5.8319988-2.2320099-5.8319988-6.1199951
					C26.3520031,195.1671143,26.3520031,182.4951019,26.3520012,182.4951019z M30.1679993,195.3831177
					c0,1.7279968,0.7919998,2.3759918,2.0159988,2.3759918c1.2240028,0,2.0160027-0.647995,2.0160027-2.3759918v-13.1760101
					c0-1.7279968-0.7919998-2.3759918-2.0160027-2.3759918c-1.223999,0-2.0159988,0.647995-2.0159988,2.3759918V195.3831177z"/>
				<path d="M48.5999985,193.9431152l2.5919991-17.2799988h5.3280029v24.4080048h-3.6000023V183.575119l-2.6639977,17.4960022
					H46.656002l-2.8800011-17.2799988v17.2799988h-3.3120003v-24.4080048h5.3280029L48.5999985,193.9431152z"/>
				<path d="M63.144001,186.8871155h5.2560005v3.4559937H63.144001v7.128006h6.6239967v3.4559937H59.3279991v-24.4079895h10.4399986
					v3.4559937H63.144001V186.8871155z"/>
				<path d="M70.9919968,176.6631165h11.8800049v3.4559937h-4.0320053v20.8800049h-3.8160019v-20.8800049h-4.0319977V176.6631165z"
					/>
				<path d="M92.5200043,200.999115c-0.2160034-0.647995-0.3600006-1.0079956-0.3600006-3.0240021v-3.8160095
					c0-2.2320099-0.7919998-3.0960083-2.5199966-3.0960083h-1.2960052v9.9360046h-3.8160019V176.591095h5.7600021
					c3.9599991,0,5.6879959,1.8720093,5.6879959,5.6159973v1.9440002c0,2.5200043-0.7920074,4.1760101-2.5200043,4.9680023
					c1.9440002,0.7920074,2.5200043,2.6640015,2.5200043,5.1839905v3.7440033c0,1.1520081,0,2.0879974,0.4319992,2.9520111
					h-3.8879929V200.999115z M88.3440018,180.1191101v7.4880066h1.512001c1.4399948,0,2.3040009-0.647995,2.3040009-2.5920105
					v-2.3760071c0-1.7279968-0.576004-2.519989-1.9440002-2.519989H88.3440018L88.3440018,180.1191101z"/>
				<path d="M101.7359924,192.9351044l-4.8239975-16.2720032h4.0320053l2.9520035,11.0879974l2.9520111-11.0879974h3.6719971
					l-4.8239975,16.2720032v8.0640106h-3.8160019v-8.0640106H101.7359924z"/>
				<path d="M128.5200043,191.9271088v3.2400055c0,3.8879852-1.9440002,6.1199951-5.6879959,6.1199951
					s-5.6879959-2.2320099-5.6879959-6.1199951v-12.6720123c0-3.8879852,1.9440002-6.1199951,5.6879959-6.1199951
					s5.6879959,2.2320099,5.6879959,6.1199951v2.3760071h-3.5999985v-2.6640015
					c0-1.7279968-0.7920074-2.3759918-2.0160065-2.3759918c-1.2239914,0-2.0159988,0.647995-2.0159988,2.3759918v13.1760101
					c0,1.7279968,0.7920074,2.3759918,2.0159988,2.3759918c1.223999,0,2.0160065-0.647995,2.0160065-2.3759918v-3.4560089
					H128.5200043z"/>
				<path d="M130.5359955,182.4951019c0-3.8879852,2.0879974-6.1199951,5.8320007-6.1199951
					c3.7440186,0,5.8320007,2.2320099,5.8320007,6.1199951v12.6720123c0,3.8879852-2.0879822,6.1199951-5.8320007,6.1199951
					c-3.7440033,0-5.8320007-2.2320099-5.8320007-6.1199951V182.4951019z M134.352005,195.3831177
					c0,1.7279968,0.7919922,2.3759918,2.0159912,2.3759918s2.0160065-0.647995,2.0160065-2.3759918v-13.1760101
					c0-1.7279968-0.7920074-2.3759918-2.0160065-2.3759918s-2.0159912,0.647995-2.0159912,2.3759918V195.3831177z"/>
				<path d="M144.647995,176.6631165h3.8160095v20.8799896h6.3359985v3.4559937H144.647995V176.6631165z"/>
				<path d="M156.4559937,176.6631165h3.8160095v20.8799896h6.3359985v3.4559937h-10.1520081V176.6631165z"/>
				<path d="M172.0800018,186.8871155h5.256012v3.4559937h-5.256012v7.128006h6.6239929v3.4559937h-10.4399872v-24.4079895
					h10.4399872v3.4559937h-6.6239929V186.8871155z"/>
				<path d="M192.1679993,191.9271088v3.2400055c0,3.8879852-1.9440155,6.1199951-5.6879883,6.1199951
					c-3.743988,0-5.6880035-2.2320099-5.6880035-6.1199951v-12.6720123c0-3.8879852,1.9440002-6.1199951,5.6880035-6.1199951
					c3.7439728,0,5.6879883,2.2320099,5.6879883,6.1199951v2.3760071h-3.6000061v-2.6640015
					c0-1.7279968-0.7919922-2.3759918-2.0159912-2.3759918c-1.2239838,0-2.0159912,0.647995-2.0159912,2.3759918v13.1760101
					c0,1.7279968,0.7920074,2.3759918,2.0159912,2.3759918c1.223999,0,2.0159912-0.647995,2.0159912-2.3759918v-3.4560089
					H192.1679993z"/>
				<path d="M193.3920135,176.6631165h11.8799896v3.4559937h-4.0319977v20.8800049h-3.8159943v-20.8800049h-4.0319977V176.6631165z"
					/>
				<path d="M206.9279938,176.6631165h3.8159943v24.4080048h-3.8159943V176.6631165z"/>
				<path d="M219.3120117,196.5351105l2.9519958-19.8720093h3.5279999l-3.7440033,24.4079895h-5.7600098l-3.7440033-24.4079895
					h3.8880005L219.3120117,196.5351105z"/>
				<path d="M231.3359985,186.8871155h5.2559814v3.4559937h-5.2559814v7.128006h6.6240082v3.4559937h-10.4400024v-24.4079895
					h10.4400024v3.4559937h-6.6240082V186.8871155z"/>
			</g>
			<g>
				<path d="M80.2080002,217.6311188h-1.8000031l-0.2879944-2.0879974h-2.2320023l-0.288002,2.0879974h-1.6559982
					l1.871994-11.5200043h2.6640015L80.2080002,217.6311188z M76.0319977,214.0311127h1.7280045l-0.8639984-5.8320007
					L76.0319977,214.0311127z"/>
				<path d="M79.8479996,206.1111145h5.6160049v1.6559906h-1.8720016v9.8640137h-1.8000031v-9.8640137h-1.871994v-1.6559906
					H79.8479996z"/>
				<path d="M94.1040039,213.3831024v1.5120087c0,1.871994-0.9360046,2.8799896-2.6640015,2.8799896
					s-2.6639938-1.0800018-2.6639938-2.8799896v-5.9759979c0-1.8720093,0.935997-2.8800049,2.6639938-2.8800049
					s2.6640015,1.0800018,2.6640015,2.8800049v1.1520081h-1.7279968v-1.2240143
					c0-0.7920074-0.3600006-1.1520081-0.9360046-1.1520081c-0.5759964,0-0.935997,0.2880096-0.935997,1.1520081v6.1920013
					c0,0.7920074,0.3600006,1.1520081,0.935997,1.1520081c0.576004,0,0.9360046-0.2879944,0.9360046-1.1520081v-1.6559906h1.7279968
					V213.3831024z"/>
				<path d="M101.0159988,217.6311188h-1.8000031l-0.2879944-2.0879974h-2.2320023l-0.288002,2.0879974h-1.6559982
					l1.8720016-11.5200043h2.6640015L101.0159988,217.6311188z M96.9119949,214.0311127h1.7279968l-0.8639984-5.8320007
					L96.9119949,214.0311127z"/>
				<path d="M105.6240005,217.6311188c-0.0720062-0.2879944-0.1439972-0.5040131-0.1439972-1.4400024v-1.8000031
					c0-1.0799866-0.3600006-1.4399872-1.1520004-1.4399872h-0.647995v4.6799927h-1.8000031v-11.5200043h2.7360001
					c1.8720093,0,2.6640015,0.8640137,2.6640015,2.6640167v0.9359894c0,1.1520081-0.3600006,1.9440002-1.1520081,2.3040009
					c0.9360046,0.3600006,1.223999,1.2240143,1.223999,2.447998v1.8000031c0,0.5759888,0,0.9359894,0.2160034,1.3679962H105.6240005
					z M103.6800079,207.7671051v3.5279999h0.7199936c0.647995,0,1.0800018-0.2879944,1.0800018-1.2240143v-1.1519928
					c0-0.7920074-0.2879944-1.1520081-0.9360046-1.1520081h-0.8639908V207.7671051z"/>
				<path d="M110.0879974,209.35112v8.352005h-1.6559982v-11.5200043h2.3039932l1.8720093,6.9120026v-6.9120026h1.5839996
					v11.5200043h-1.8720093L110.0879974,209.35112z"/>
				<path d="M117.3600082,211.0071106h2.5199966v1.6559906h-2.5199966v3.3840027h3.0960007v1.6559906h-4.9680099v-11.519989
					h4.9679947v1.6559906h-3.0960007v3.1680145H117.3600082z"/>
				<path d="M124.2719955,211.2230988h2.5200043v3.6720123c0,1.871994-0.9360046,2.8799896-2.6640015,2.8799896
					s-2.6639938-1.0800018-2.6639938-2.8799896v-5.9759979c0-1.8720093,0.935997-2.8800049,2.6639938-2.8800049
					s2.6640015,1.0800018,2.6640015,2.8800049v1.1520081h-1.7279968v-1.2240143
					c0-0.7920074-0.3600006-1.1520081-0.9360046-1.1520081s-0.935997,0.2880096-0.935997,1.1520081v6.1920013
					c0,0.7920074,0.359993,1.1520081,0.935997,1.1520081s0.9360046-0.2879944,0.9360046-1.1520081v-2.0879822h-0.7920074
					V211.2230988z"/>
				<path d="M128.0159912,206.1111145h1.8000031v11.5200043h-1.8000031V206.1111145z"/>
				<path d="M132.9120026,211.0071106h2.519989v1.6559906h-2.519989v3.3840027h3.095993v1.6559906h-4.9679871v-11.519989h4.9679871
					v1.6559906h-3.095993V211.0071106z"/>
				<path d="M143.5679932,214.3191223l1.223999-8.2080078h2.5200043v11.5200043h-1.7279968V209.35112l-1.223999,8.2799988
					h-1.7279968l-1.3679962-8.1359863v8.1359863h-1.5839996v-11.5200043h2.5200043L143.5679932,214.3191223z"/>
				<path d="M150.480011,211.0071106H153v1.6559906h-2.519989v3.3840027h3.095993v1.6559906h-4.9680023v-11.519989h4.9679871
					v1.6559906h-3.095993v3.1680145H150.480011z"/>
				<path d="M154.7279968,206.1111145h1.8000031v9.9359894h2.9520111v1.6559906h-4.8240051v-11.59198H154.7279968z"/>
				<path d="M160.2720032,206.1111145h1.7999878v9.9359894h2.9520111v1.6559906h-4.8240051v-11.59198H160.2720032z"/>
				<path d="M165.7440033,208.9191132c0-1.8720093,0.9360046-2.8800049,2.7360077-2.8800049
					c1.7999878,0,2.7359924,1.0800018,2.7359924,2.8800049v5.9759979c0,1.871994-0.9360046,2.8799896-2.7359924,2.8799896
					c-1.8000031,0-2.7360077-1.0800018-2.7360077-2.8799896V208.9191132z M167.5440063,215.0391083
					c0,0.7920074,0.3600006,1.1520081,0.9360046,1.1520081c0.5759888,0,0.9359894-0.2879944,0.9359894-1.1520081v-6.1920013
					c0-0.7920074-0.3600006-1.1520081-0.9359894-1.1520081c-0.576004,0-0.9360046,0.2880096-0.9360046,1.1520081V215.0391083z"/>
				<path d="M174.0240021,209.35112v8.352005h-1.6560059v-11.5200043h2.3040009l1.8720093,6.9120026v-6.9120026h1.5839996
					v11.5200043h-1.8720093L174.0240021,209.35112z"/>
				<path d="M183.6720123,206.1111145v8.8560028c0,0.7919922,0.3600006,1.1519928,0.9359894,1.1519928
					s0.9359894-0.2879944,0.9359894-1.1519928v-8.8560028h1.7279968v8.7840118c0,1.8720093-0.9359894,2.8800049-2.6640167,2.8800049
					c-1.7280121,0-2.6639862-1.0800018-2.6639862-2.8800049v-8.7840118H183.6720123z"/>
				<path d="M190.1520081,209.35112v8.352005h-1.6559906v-11.5200043h2.3040161l1.871994,6.9120026v-6.9120026h1.5840149v11.5200043
					h-1.8720093L190.1520081,209.35112z"/>
				<path d="M195.552002,206.1111145h1.8000031v11.5200043h-1.8000031V206.1111145z"/>
				<path d="M201.3839874,215.5431061l1.3679962-9.4320068h1.6559906l-1.8000031,11.5200043h-2.6640015l-1.8000031-11.5200043
					h1.8000031L201.3839874,215.5431061z"/>
				<path d="M207.0720062,211.0071106h2.5200043v1.6559906h-2.5200043v3.3840027h3.095993v1.6559906h-4.9680023v-11.519989
					h4.9680023v1.6559906h-3.095993V211.0071106z"/>
				<path d="M215.1360016,217.6311188c-0.0720062-0.2879944-0.1440125-0.5040131-0.1440125-1.4400024v-1.8000031
					c0-1.0799866-0.3600006-1.4399872-1.1520081-1.4399872h-0.647995v4.6799927h-1.8000031v-11.5200043h2.7359924
					c1.8720093,0,2.6640167,0.8640137,2.6640167,2.6640167v0.9359894c0,1.1520081-0.3600006,1.9440002-1.1520081,2.3040009
					c0.9359894,0.3600006,1.2240143,1.2240143,1.2240143,2.447998v1.8000031c0,0.5759888,0,0.9359894,0.2159882,1.3679962
					H215.1360016z M213.1200104,207.7671051v3.5279999h0.7200012c0.647995,0,1.0799866-0.2879944,1.0799866-1.2240143v-1.1519928
					c0-0.7920074-0.2879944-1.1520081-0.9359894-1.1520081h-0.8639984V207.7671051z"/>
				<path d="M220.3920135,206.0391083c1.7279968,0,2.6640015,1.0800018,2.6640015,2.8800049v0.3600006h-1.7280121v-0.5040131
					c0-0.7919922-0.3600006-1.1519928-0.9359894-1.1519928s-0.9359894,0.2879944-0.9359894,1.1519928
					c0,2.3759918,3.5279846,2.8079987,3.5279846,6.1200104c0,1.871994-0.9359894,2.8799896-2.6640015,2.8799896
					c-1.7280273,0-2.6640167-1.0800018-2.6640167-2.8799896v-0.7200012h1.7279968v0.7920074
					c0,0.7919922,0.3600006,1.1519928,0.9359894,1.1519928c0.576004,0,0.9359894-0.2879944,0.9359894-1.1519928
					c0-2.3759918-3.5279846-2.8079987-3.5279846-6.1200104
					C217.7279968,207.0471039,218.6639862,206.0391083,220.3920135,206.0391083z"/>
				<path d="M224.1360016,206.1111145h1.7999878v11.5200043h-1.7999878V206.1111145z"/>
				<path d="M226.7279968,206.1111145h5.6159973v1.6559906h-1.8720093v9.8640137h-1.8000031v-9.8640137h-1.871994v-1.6559906
					H226.7279968z"/>
				<path d="M234.7920074,213.8151093l-2.3040009-7.70401h1.871994l1.3679962,5.2559967l1.3679962-5.2559967h1.7279968
					l-2.3040009,7.70401v3.8159943h-1.8000031v-3.8159943H234.7920074z"/>
			</g>
		</g>
	</g>
	<g>
		<path d="M6.9764767,12.0093765l-1.8720703,0.0021095L4.7820234,9.8697672L2.5053048,9.8718767L2.186789,12.0142984
			l-1.7029686,0.0014057L2.3608127,0.2088295l2.715117-0.0021094L6.9764767,12.0093765z M2.7394454,8.269455l1.7876952-0.0021095
			L3.6278439,2.2992201L2.7394454,8.269455z"/>
		<path d="M15.938859,3.1134388l0.0014067,1.5349219c0.0021095,1.8885937-0.9080858,2.9179688-2.7629299,2.9193749
			l-0.8771486,0.0014062l0.004571,4.4353127l-1.8548441,0.0014057L10.4383125,0.2010951l2.7319918-0.0028125
			C15.0251484,0.1968764,15.9371014,1.2248452,15.938859,3.1134388z M12.2949142,1.8857826l0.0038671,3.9972653L13.17593,5.8816419
			c0.5902729,0,0.9101954-0.2707028,0.9094915-1.11375l-0.0017576-1.7711718
			c-0.0007029-0.8430469-0.3213282-1.1123437-0.9116011-1.1123437L12.2949142,1.8857826z"/>
		<path d="M20.770031,11.9960175c-0.1016006-0.30375-0.1694527-0.4893751-0.1701565-1.4505472l-0.0017567-1.8548441
			c-0.0010548-1.0961719-0.3726578-1.5004687-1.2160549-1.4997654l-0.6408997,0.0007033l0.0049229,4.8065619l-1.8548431,0.0014067
			L16.8796406,0.194767l2.7994919-0.0028125c1.9223442-0.0014062,2.7495708,0.8915625,2.7513294,2.712656l0.0007019,0.9281251
			c0.0014057,1.2135937-0.385664,2.0067189-1.2114849,2.3948438c0.9277744,0.3874216,1.2318764,1.2810936,1.2332821,2.5122657
			l0.0017586,1.8210936c0.000351,0.5737505,0.0175781,0.9949217,0.2039051,1.4329691L20.770031,11.9960175z M18.7362423,1.8794545
			l0.0035152,3.6260157l0.7252731-0.0007033c0.6915245-0.0007029,1.1126957-0.3051562,1.1116409-1.2494531l-0.0010548-1.163672
			c-0.0007019-0.8430467-0.2879295-1.2135936-0.9453506-1.2128905L18.7362423,1.8794545z"/>
		<path d="M23.509407,3.0213294c-0.0017586-1.8885937,0.9921093-2.9685936,2.8135548-2.9707031
			c1.8210926-0.0014063,2.817421,1.0764843,2.8191795,2.9650781l0.0059757,6.1389847
			c0.0017586,1.8885937-0.9924603,2.9692965-2.8135548,2.9707031c-1.8214455,0.0021095-2.817421-1.0764847-2.8191795-2.9650784
			L23.509407,3.0213294z M25.3705788,9.2770329c0.0010548,0.8430462,0.3719521,1.1622658,0.9622269,1.161562
			c0.5902729-0.0007029,0.9611702-0.3206244,0.9601154-1.1636715L27.2869453,2.899689
			c-0.0010548-0.8430469-0.3723049-1.1629689-0.9625778-1.1622657c-0.5902729,0.0007031-0.9608212,0.321328-0.9597664,1.1643749
			L25.3705788,9.2770329z"/>
		<path d="M30.3363991,0.1821108l2.9341393-0.0028125c1.8551979-0.0021094,2.7667961,1.0258594,2.7685547,2.9144533
			l0.0059776,5.9702344c0.0017586,1.8885937-0.9077339,2.9179688-2.7629318,2.9200783l-2.9341393,0.0028124L30.3363991,0.1821108z
			 M32.1930008,1.8660951l0.0080833,8.432579l1.0455475-0.0007038c0.5902748-0.0007029,0.9442978-0.3051558,0.9435959-1.1482029
			l-0.0059776-6.1389842c-0.0007019-0.8430469-0.3554306-1.1460938-0.9457016-1.1453907L32.1930008,1.8660951z"/>
		<path d="M38.9865952,0.1736732l0.0087891,9.1061716c0.0010529,0.84375,0.372303,1.1460934,0.9625778,1.1460934
			c0.590271-0.0007029,0.9611702-0.3044529,0.9601173-1.1482029l-0.0087891-9.1061716l1.7539444-0.0014063l0.0087891,8.9887505
			c0.0017586,1.8885937-0.9418373,2.9685936-2.7629318,2.9707031c-1.8214417,0.0014057-2.7667961-1.0771875-2.7685547-2.9657812
			l-0.0087891-8.9887505L38.9865952,0.1736732z"/>
		<path d="M49.3147964,7.5670328l0.0014076,1.5686712c0.0017586,1.8885946-0.9414864,2.9685946-2.7629318,2.9700003
			c-1.8214455,0.0021095-2.7667961-1.0764837-2.7685547-2.9650784L43.7787437,3.001642
			c-0.0017586-1.8885938,0.9414825-2.9685938,2.762928-2.9707031c1.8214455-0.0014063,2.7667961,1.0771875,2.7685547,2.9657812
			l0.0010567,1.1467969l-1.7539482,0.0014062L47.556282,2.8800013c-0.0010567-0.8430469-0.3723068-1.1622655-0.9625778-1.1622655
			c-0.5902748,0.0007031-0.9608231,0.3213282-0.9597664,1.1643751l0.0059776,6.3752346
			c0.0010529,0.8430471,0.3719521,1.1453905,0.9622269,1.1446877c0.590271,0,0.9611702-0.30375,0.9601173-1.1467972
			L47.5608521,7.568439L49.3147964,7.5670328z"/>
		<path d="M49.8969841,0.1631264l5.7339859-0.005625l0.0014038,1.6860938l-1.9392166,0.0021094l0.0098419,10.1186714
			l-1.8551941,0.0014057L51.8379593,1.8471107l-1.9392166,0.0021094L49.8969841,0.1631264z"/>
		<path d="M56.4395638,0.1567982l1.8548431-0.0021094l0.0112495,11.8047657l-1.8548431,0.0021095L56.4395638,0.1567982z"/>
		<path d="M59.4946404,2.9868765c-0.0021095-1.8885939,0.9921112-2.9692969,2.8132019-2.9707031
			c1.8210945-0.0021094,2.8167229,1.0764843,2.8188286,2.9650781l0.0056229,6.1389837
			c0.0021133,1.8885937-0.9914017,2.9685936-2.8124962,2.9707031c-1.8210945,0.0014067-2.817421-1.0764837-2.8195305-2.9650774
			L59.4946404,2.9868765z M61.3558121,9.2418766c0.0007019,0.8430462,0.3712502,1.1629686,0.9618759,1.1622658
			c0.58992-0.0007038,0.9611702-0.3213282,0.9604683-1.1643753l-0.0063286-6.3752346
			c-0.0007019-0.8430469-0.372654-1.1622657-0.9625778-1.1615626c-0.5906258,0.0007031-0.9604683,0.3206249-0.9597664,1.1636719
			L61.3558121,9.2418766z"/>
		<path d="M67.9771423,3.4003139l0.0077362,8.5499992l-1.6699219,0.0014067L66.3037033,0.1469545l2.3273468-0.0021094
			l1.9124985,7.0635939l-0.0070343-7.0657029l1.6530457-0.0014063l0.0112534,11.8047657l-1.9054718,0.0021086L67.9771423,3.4003139z
			"/>
		<path d="M75.9864349,2.9707046c-0.0021057-1.8885938,0.9921112-2.9685938,2.8132095-2.9707031
			c1.8210907-0.0014063,2.8167114,1.0764843,2.8188248,2.9650781l0.0056229,6.1389847
			c0.0021133,1.8885937-0.9914017,2.9692965-2.8125,2.9707031c-1.8210907,0.0021095-2.817421-1.0764847-2.8195267-2.9650784
			L75.9864349,2.9707046z M77.8476105,9.2257042c0.0007019,0.8430471,0.3712463,1.1629686,0.9618759,1.1622658
			c0.58992-0.0007029,0.9611664-0.3206253,0.9604645-1.1636715l-0.0063248-6.3752346
			c-0.0007019-0.8430469-0.3726578-1.1629688-0.9625778-1.1622657c-0.5906296,0.0007032-0.9604721,0.3206249-0.9597702,1.1636719
			L77.8476105,9.2257042z"/>
		<path d="M84.6728439,5.3739858l2.3941422-0.0021095l0.0021057,1.6867971l-2.3941422,0.0021091l0.0042191,4.8733597
			l-1.855545,0.0021095L82.8123779,0.1314857l4.9078064-0.0049219l0.0014114,1.6860937l-3.052269,0.0028125L84.6728439,5.3739858z"
			/>
		<path d="M90.6880798,0.1237514l5.7339859-0.005625l0.0014038,1.6860937l-1.9399261,0.0014063l0.0098495,10.1186714
			l-1.8548431,0.0021095L92.6287003,1.8077358l-1.9392166,0.0021093L90.6880798,0.1237514z"/>
		<path d="M99.0967484,11.9200792l-1.855545,0.0021095L97.22995,0.1174233l1.8555527-0.0021094l0.004921,5.0589843
			l2.1079636-0.0021095l-0.004921-5.0589843l1.8885956-0.0014063l0.0112534,11.8047657l-1.8885956,0.0014057l-0.004921-5.0589838
			L99.0918274,6.861095L99.0967484,11.9200792z"/>
		<path d="M106.2911224,5.0828919l2.5460205-0.0021095l0.0014038,1.6867971l-2.5460129,0.0021095l0.0035095,3.4572654
			l3.2041473-0.0028124l0.0014038,1.6860933l-5.0596848,0.0049219L104.4306564,0.110392l5.0596848-0.0049219l0.0014114,1.6860938
			l-3.2041397,0.0028125L106.2911224,5.0828919z"/>
	</g>
</g>
</svg>
