# Blender v2.79 (sub 0) OBJ File: ''
# www.blender.org
mtllib small_disk.mtl
o Default
v -0.073424 0.197694 0.000000
v -0.133159 0.092802 0.000000
v -0.027912 0.106669 0.000000
v -0.204983 0.124803 0.000000
v 0.055290 0.203738 0.000000
v 0.077691 0.088536 0.000000
v 0.183293 0.160360 0.000000
v 0.166582 0.062224 0.000000
v 0.234139 -0.025956 -0.000000
v 0.137426 -0.000711 -0.000000
v 0.061690 -0.029512 -0.000000
v 0.104358 -0.103469 -0.000000
v 0.135648 -0.158226 -0.000000
v 0.001244 0.011734 0.000000
v -0.118936 -0.003556 -0.000000
v -0.036445 -0.096713 -0.000000
v -0.234139 0.018845 0.000000
v -0.187916 -0.101336 -0.000000
v -0.052801 -0.203738 -0.000000
vn 0.0000 -0.0000 1.0000
usemtl Default
s 1
f 1//1 2//1 3//1
f 1//1 4//1 2//1
f 5//1 1//1 3//1
f 5//1 3//1 6//1
f 7//1 5//1 6//1
f 8//1 7//1 6//1
f 9//1 7//1 8//1
f 10//1 9//1 8//1
f 6//1 10//1 8//1
f 10//1 6//1 11//1
f 12//1 10//1 11//1
f 12//1 9//1 10//1
f 9//1 12//1 13//1
f 11//1 6//1 14//1
f 14//1 6//1 3//1
f 15//1 14//1 3//1
f 14//1 15//1 16//1
f 11//1 14//1 16//1
f 12//1 11//1 16//1
f 15//1 3//1 2//1
f 17//1 15//1 2//1
f 4//1 17//1 2//1
f 15//1 17//1 18//1
f 16//1 15//1 18//1
f 19//1 16//1 18//1
f 12//1 16//1 19//1
f 13//1 12//1 19//1
